<mxfile host="Electron" agent="Mozilla/5.0 (X11; Linux x86_64) AppleWebKit/537.36 (KHTML, like Gecko) draw.io/24.7.17 Chrome/128.0.6613.36 Electron/32.0.1 Safari/537.36" version="24.7.17">
  <diagram name="Page-1" id="jj99hCAVX1LFmfaKzFOa">
    <mxGraphModel dx="1183" dy="724" grid="1" gridSize="10" guides="1" tooltips="1" connect="1" arrows="1" fold="1" page="1" pageScale="1" pageWidth="1169" pageHeight="827" math="0" shadow="0">
      <root>
        <mxCell id="0" />
        <mxCell id="1" parent="0" />
        <mxCell id="e-3lXU6PlFcb_SwNqCSh-6" style="edgeStyle=orthogonalEdgeStyle;rounded=1;orthogonalLoop=1;jettySize=auto;html=1;exitX=1;exitY=0.25;exitDx=0;exitDy=0;strokeWidth=2;strokeColor=default;curved=0;entryX=0.5;entryY=0;entryDx=0;entryDy=0;" edge="1" parent="1" source="e-3lXU6PlFcb_SwNqCSh-2" target="e-3lXU6PlFcb_SwNqCSh-52">
          <mxGeometry relative="1" as="geometry">
            <mxPoint x="440" y="370" as="targetPoint" />
          </mxGeometry>
        </mxCell>
        <mxCell id="e-3lXU6PlFcb_SwNqCSh-55" value="/carla/ego_vehicle/vehicle_status" style="edgeLabel;html=1;align=center;verticalAlign=middle;resizable=0;points=[];fontFamily=Helvetica;fontSize=8;fontColor=#333333;labelBackgroundColor=none;fillColor=none;gradientColor=none;" vertex="1" connectable="0" parent="e-3lXU6PlFcb_SwNqCSh-6">
          <mxGeometry x="-0.0159" y="-4" relative="1" as="geometry">
            <mxPoint x="7" y="2" as="offset" />
          </mxGeometry>
        </mxCell>
        <mxCell id="e-3lXU6PlFcb_SwNqCSh-2" value="CARLA" style="rounded=1;whiteSpace=wrap;html=1;strokeWidth=2;fillColor=#e1d5e7;strokeColor=#9673a6;fontStyle=1" vertex="1" parent="1">
          <mxGeometry x="170" y="280" width="120" height="200" as="geometry" />
        </mxCell>
        <mxCell id="e-3lXU6PlFcb_SwNqCSh-8" style="edgeStyle=orthogonalEdgeStyle;shape=connector;curved=0;rounded=1;orthogonalLoop=1;jettySize=auto;html=1;exitX=1;exitY=0.25;exitDx=0;exitDy=0;entryX=0;entryY=0.25;entryDx=0;entryDy=0;strokeColor=default;strokeWidth=2;align=center;verticalAlign=middle;fontFamily=Helvetica;fontSize=11;fontColor=default;labelBackgroundColor=default;endArrow=classic;" edge="1" parent="1" source="e-3lXU6PlFcb_SwNqCSh-3" target="e-3lXU6PlFcb_SwNqCSh-5">
          <mxGeometry relative="1" as="geometry" />
        </mxCell>
        <mxCell id="e-3lXU6PlFcb_SwNqCSh-3" value="microAutoware" style="rounded=1;whiteSpace=wrap;html=1;strokeWidth=2;fillColor=#d5e8d4;strokeColor=#82b366;fontStyle=1" vertex="1" parent="1">
          <mxGeometry x="562.63" y="280" width="120" height="200" as="geometry" />
        </mxCell>
        <mxCell id="e-3lXU6PlFcb_SwNqCSh-7" style="edgeStyle=orthogonalEdgeStyle;shape=connector;curved=0;rounded=1;orthogonalLoop=1;jettySize=auto;html=1;entryX=1;entryY=0.75;entryDx=0;entryDy=0;strokeColor=default;strokeWidth=2;align=center;verticalAlign=middle;fontFamily=Helvetica;fontSize=11;fontColor=default;labelBackgroundColor=default;endArrow=classic;exitX=0.25;exitY=0;exitDx=0;exitDy=0;" edge="1" parent="1" source="e-3lXU6PlFcb_SwNqCSh-4" target="e-3lXU6PlFcb_SwNqCSh-2">
          <mxGeometry relative="1" as="geometry">
            <mxPoint x="490" y="430" as="sourcePoint" />
          </mxGeometry>
        </mxCell>
        <mxCell id="e-3lXU6PlFcb_SwNqCSh-46" value="&lt;font style=&quot;font-size: 8px;&quot;&gt;/carla/ego_vehicle/ackermann_cmd&lt;/font&gt;" style="edgeLabel;html=1;align=center;verticalAlign=middle;resizable=0;points=[];labelBackgroundColor=none;fontColor=#333333;" vertex="1" connectable="0" parent="e-3lXU6PlFcb_SwNqCSh-7">
          <mxGeometry x="0.0849" y="2" relative="1" as="geometry">
            <mxPoint x="-1" y="-10" as="offset" />
          </mxGeometry>
        </mxCell>
        <mxCell id="e-3lXU6PlFcb_SwNqCSh-82" style="edgeStyle=orthogonalEdgeStyle;shape=connector;curved=0;rounded=1;orthogonalLoop=1;jettySize=auto;html=1;exitX=0.75;exitY=1;exitDx=0;exitDy=0;entryX=0;entryY=0.25;entryDx=0;entryDy=0;strokeColor=#000000;strokeWidth=2;align=center;verticalAlign=middle;fontFamily=Helvetica;fontSize=11;fontColor=#333333;labelBackgroundColor=none;resizable=0;endArrow=none;endFill=0;fillColor=#f8cecc;" edge="1" parent="1" source="e-3lXU6PlFcb_SwNqCSh-4" target="e-3lXU6PlFcb_SwNqCSh-3">
          <mxGeometry relative="1" as="geometry" />
        </mxCell>
        <mxCell id="e-3lXU6PlFcb_SwNqCSh-83" style="edgeStyle=orthogonalEdgeStyle;shape=connector;curved=0;rounded=1;orthogonalLoop=1;jettySize=auto;html=1;exitX=0.25;exitY=1;exitDx=0;exitDy=0;entryX=0;entryY=0.747;entryDx=0;entryDy=0;strokeColor=#000000;strokeWidth=2;align=center;verticalAlign=middle;fontFamily=Helvetica;fontSize=11;fontColor=#333333;labelBackgroundColor=none;resizable=0;endArrow=none;endFill=0;fillColor=#f8cecc;entryPerimeter=0;" edge="1" parent="1" source="e-3lXU6PlFcb_SwNqCSh-4" target="e-3lXU6PlFcb_SwNqCSh-3">
          <mxGeometry relative="1" as="geometry" />
        </mxCell>
        <mxCell id="e-3lXU6PlFcb_SwNqCSh-4" value="Carla Seria&lt;span style=&quot;background-color: initial;&quot;&gt;l&amp;nbsp;&lt;/span&gt;&lt;span style=&quot;background-color: initial;&quot;&gt;Bridge&lt;/span&gt;" style="rounded=1;whiteSpace=wrap;html=1;strokeWidth=2;fillColor=#d5e8d4;strokeColor=#82b366;rotation=-90;fontStyle=1;arcSize=50;" vertex="1" parent="1">
          <mxGeometry x="440" y="363.49" width="198.74" height="32.5" as="geometry" />
        </mxCell>
        <mxCell id="e-3lXU6PlFcb_SwNqCSh-9" style="edgeStyle=orthogonalEdgeStyle;shape=connector;curved=0;rounded=1;orthogonalLoop=1;jettySize=auto;html=1;exitX=0;exitY=0.75;exitDx=0;exitDy=0;entryX=1;entryY=0.75;entryDx=0;entryDy=0;strokeColor=default;strokeWidth=2;align=center;verticalAlign=middle;fontFamily=Helvetica;fontSize=11;fontColor=default;labelBackgroundColor=default;endArrow=classic;" edge="1" parent="1" source="e-3lXU6PlFcb_SwNqCSh-5" target="e-3lXU6PlFcb_SwNqCSh-3">
          <mxGeometry relative="1" as="geometry" />
        </mxCell>
        <mxCell id="e-3lXU6PlFcb_SwNqCSh-50" value="/vehicle/status/velocity_status&lt;div&gt;/vehicle/status/steering_status&lt;br&gt;&lt;/div&gt;" style="edgeLabel;html=1;align=center;verticalAlign=middle;resizable=0;points=[];fontFamily=Helvetica;fontSize=8;fontColor=#333333;labelBackgroundColor=none;fillColor=none;gradientColor=none;" vertex="1" connectable="0" parent="e-3lXU6PlFcb_SwNqCSh-9">
          <mxGeometry x="0.1638" y="-2" relative="1" as="geometry">
            <mxPoint x="15" y="-86" as="offset" />
          </mxGeometry>
        </mxCell>
        <mxCell id="e-3lXU6PlFcb_SwNqCSh-51" value="/control/command/control_cmd" style="edgeLabel;html=1;align=center;verticalAlign=middle;resizable=0;points=[];fontFamily=Helvetica;fontSize=8;fontColor=#333333;labelBackgroundColor=none;fillColor=none;gradientColor=none;" vertex="1" connectable="0" parent="e-3lXU6PlFcb_SwNqCSh-9">
          <mxGeometry x="0.0147" relative="1" as="geometry">
            <mxPoint x="2" y="-6" as="offset" />
          </mxGeometry>
        </mxCell>
        <mxCell id="e-3lXU6PlFcb_SwNqCSh-5" value="Autoware" style="rounded=1;whiteSpace=wrap;html=1;strokeWidth=2;fillColor=#dae8fc;strokeColor=#6c8ebf;fontStyle=1" vertex="1" parent="1">
          <mxGeometry x="837.62" y="280" width="120" height="200" as="geometry" />
        </mxCell>
        <mxCell id="e-3lXU6PlFcb_SwNqCSh-13" value="Latency evaluation" style="text;html=1;align=center;verticalAlign=middle;resizable=0;points=[];autosize=1;fontFamily=Helvetica;fontSize=24;labelBackgroundColor=none;fontStyle=1" vertex="1" parent="1">
          <mxGeometry x="40" y="40" width="220" height="40" as="geometry" />
        </mxCell>
        <mxCell id="e-3lXU6PlFcb_SwNqCSh-20" style="edgeStyle=orthogonalEdgeStyle;shape=connector;curved=0;rounded=1;orthogonalLoop=1;jettySize=auto;html=1;entryX=0.5;entryY=0;entryDx=0;entryDy=0;strokeColor=#999999;strokeWidth=2;align=center;verticalAlign=middle;fontFamily=Helvetica;fontSize=11;fontColor=default;labelBackgroundColor=default;endArrow=classic;dashed=1;exitX=0.5;exitY=0;exitDx=0;exitDy=0;" edge="1" parent="1" source="e-3lXU6PlFcb_SwNqCSh-15" target="e-3lXU6PlFcb_SwNqCSh-17">
          <mxGeometry relative="1" as="geometry">
            <mxPoint x="494.115" y="291.1842569896212" as="sourcePoint" />
            <Array as="points">
              <mxPoint x="321" y="253" />
              <mxPoint x="807" y="253" />
            </Array>
          </mxGeometry>
        </mxCell>
        <mxCell id="e-3lXU6PlFcb_SwNqCSh-15" value="Stamp send time" style="text;html=1;align=center;verticalAlign=middle;whiteSpace=wrap;rounded=0;fontSize=10;strokeColor=#666666;fillColor=#f5f5f5;fontColor=#333333;" vertex="1" parent="1">
          <mxGeometry x="296" y="289" width="50" height="30" as="geometry" />
        </mxCell>
        <mxCell id="e-3lXU6PlFcb_SwNqCSh-32" style="edgeStyle=orthogonalEdgeStyle;shape=connector;curved=0;rounded=1;orthogonalLoop=1;jettySize=auto;html=1;entryX=0.5;entryY=1;entryDx=0;entryDy=0;dashed=1;strokeColor=#999999;strokeWidth=2;align=center;verticalAlign=middle;fontFamily=Helvetica;fontSize=11;fontColor=default;labelBackgroundColor=default;endArrow=classic;" edge="1" parent="1" source="e-3lXU6PlFcb_SwNqCSh-16" target="e-3lXU6PlFcb_SwNqCSh-18">
          <mxGeometry relative="1" as="geometry">
            <Array as="points">
              <mxPoint x="807" y="510" />
              <mxPoint x="320" y="510" />
            </Array>
          </mxGeometry>
        </mxCell>
        <mxCell id="e-3lXU6PlFcb_SwNqCSh-16" value="Stamp send time" style="text;html=1;align=center;verticalAlign=middle;whiteSpace=wrap;rounded=0;fontSize=10;strokeColor=#666666;fillColor=#f5f5f5;fontColor=#333333;" vertex="1" parent="1">
          <mxGeometry x="782" y="440" width="50" height="30" as="geometry" />
        </mxCell>
        <mxCell id="e-3lXU6PlFcb_SwNqCSh-17" value="Compute latency" style="text;html=1;align=center;verticalAlign=middle;whiteSpace=wrap;rounded=0;fontSize=10;strokeColor=#666666;fillColor=#f5f5f5;fontColor=#333333;" vertex="1" parent="1">
          <mxGeometry x="782" y="289" width="50" height="30" as="geometry" />
        </mxCell>
        <mxCell id="e-3lXU6PlFcb_SwNqCSh-18" value="Compute latency" style="text;html=1;align=center;verticalAlign=middle;whiteSpace=wrap;rounded=0;fontSize=10;strokeColor=#666666;fillColor=#f5f5f5;fontColor=#333333;" vertex="1" parent="1">
          <mxGeometry x="295" y="440" width="50" height="30" as="geometry" />
        </mxCell>
        <mxCell id="e-3lXU6PlFcb_SwNqCSh-28" value="" style="shape=image;verticalLabelPosition=bottom;labelBackgroundColor=default;verticalAlign=top;aspect=fixed;imageAspect=0;image=data:image/svg+xml,PHN2ZyB4bWxuczp4bGluaz0iaHR0cDovL3d3dy53My5vcmcvMTk5OS94bGluayIgeG1sbnM9Imh0dHA6Ly93d3cudzMub3JnLzIwMDAvc3ZnIiB2aWV3Qm94PSItLjIzOTA1MSAtLjI0MjQ1OSAxNS4zNzMxMzkgOS43ODA3NjIiIGhlaWdodD0iOS43ODA3NjJwdCIgd2lkdGg9IjE1LjM3MzEzOXB0IiB2ZXJzaW9uPSIxLjEiPiYjeGE7PGRlZnM+JiN4YTs8cGF0aCBkPSJNMi40MDI5ODktNC44MDU5NzhIMy41MDI4NjRDMy43MzAwMTItNC44MDU5NzggMy44NDk1NjQtNC44MDU5NzggMy44NDk1NjQtNS4wMjExNzFDMy44NDk1NjQtNS4xNTI2NzcgMy43Nzc4MzMtNS4xNTI2NzcgMy41Mzg3My01LjE1MjY3N0gyLjQ4NjY3NUwyLjkyOTAxNi02Ljg5ODEzMkMyLjk3NjgzNy03LjA2NTUwNCAyLjk3NjgzNy03LjA4OTQxNSAyLjk3NjgzNy03LjE3MzEwMUMyLjk3NjgzNy03LjM2NDM4NCAyLjgyMTQyLTcuNDcxOTggMi42NjYwMDItNy40NzE5OEMyLjU3MDM2MS03LjQ3MTk4IDIuMjk1MzkyLTcuNDM2MTE1IDIuMTk5NzUxLTcuMDUzNTQ5TDEuNzMzNDk5LTUuMTUyNjc3SC42MDk3MTRDLjM3MDYxLTUuMTUyNjc3IC4yNjMwMTQtNS4xNTI2NzcgLjI2MzAxNC00LjkyNTUyOUMuMjYzMDE0LTQuODA1OTc4IC4zNDY3LTQuODA1OTc4IC41NzM4NDgtNC44MDU5NzhIMS42Mzc4NThMLjg0ODgxNy0xLjY0OTgxM0MuNzUzMTc2LTEuMjMxMzgyIC43MTczMS0xLjExMTgzMSAuNzE3MzEtLjk1NjQxM0MuNzE3MzEtLjM5NDUyMSAxLjExMTgzMSAuMTE5NTUyIDEuNzgxMzIgLjExOTU1MkMyLjk4ODc5MiAuMTE5NTUyIDMuNjM0MzcxLTEuNjI1OTAzIDMuNjM0MzcxLTEuNzA5NTg5QzMuNjM0MzcxLTEuNzgxMzIgMy41ODY1NS0xLjgxNzE4NiAzLjUxNDgxOS0xLjgxNzE4NkMzLjQ5MDkwOS0xLjgxNzE4NiAzLjQ0MzA4OC0xLjgxNzE4NiAzLjQxOTE3OC0xLjc2OTM2NUMzLjQwNzIyMy0xLjc1NzQxIDMuMzk1MjY4LTEuNzQ1NDU1IDMuMzExNTgyLTEuNTU0MTcyQzMuMDYwNTIzLS45NTY0MTMgMi41MTA1ODUtLjExOTU1MiAxLjgxNzE4Ni0uMTE5NTUyQzEuNDU4NTMxLS4xMTk1NTIgMS40MzQ2Mi0uNDE4NDMxIDEuNDM0NjItLjY4MTQ0NUMxLjQzNDYyLS42OTM0IDEuNDM0NjItLjkyMDU0OCAxLjQ3MDQ4Ni0xLjA2NDAxTDIuNDAyOTg5LTQuODA1OTc4WiIgaWQ9ImcwLTExNiIvPiYjeGE7PHBhdGggZD0iTTUuMTUyNjc3LTguMzIwNzk3QzUuMDY4OTkxLTguNDg4MTY5IDUuMDQ1MDgxLTguNTM1OTkgNC44Nzc3MDktOC41MzU5OUM0LjY5ODM4MS04LjUzNTk5IDQuNjc0NDcxLTguNDg4MTY5IDQuNTkwNzg1LTguMzIwNzk3TC41OTc3NTgtLjIzOTEwM0MuNTczODQ4LS4yMDMyMzggLjU0OTkzOC0uMTMxNTA3IC41NDk5MzgtLjA4MzY4NkMuNTQ5OTM4LS4wMTE5NTUgLjU2MTg5MyAwIC44MDA5OTYgMEg4Ljk0MjQ2NkM5LjE4MTU2OSAwIDkuMTkzNTI0LS4wMTE5NTUgOS4xOTM1MjQtLjA4MzY4NkM5LjE5MzUyNC0uMTMxNTA3IDkuMTY5NjE0LS4yMDMyMzggOS4xNDU3MDQtLjIzOTEwM0w1LjE1MjY3Ny04LjMyMDc5N1pNNC41MDcwOTgtNy40MzYxMTVMNy43NzA4NTktLjgyNDkwN0gxLjI1NTI5M0w0LjUwNzA5OC03LjQzNjExNVoiIGlkPSJnMS0xIi8+JiN4YTs8L2RlZnM+JiN4YTs8ZyB0cmFuc2Zvcm09Im1hdHJpeCgxLjEzIDAgMCAxLjEzIC02My45ODYwNDMgLTY0Ljg5ODE2KSIgaWQ9InBhZ2UxIj4mI3hhOzx1c2UgeGxpbms6aHJlZj0iI2cxLTEiIHk9IjY1Ljc1MzQyNSIgeD0iNTYuNDEzMjY3Ii8+JiN4YTs8dXNlIHhsaW5rOmhyZWY9IiNnMC0xMTYiIHk9IjY1Ljc1MzQyNSIgeD0iNjYuMTY4MjUxIi8+JiN4YTs8L2c+JiN4YTs8L3N2Zz4=;" vertex="1" parent="1">
          <mxGeometry x="576.9985714285713" y="240.00285714285712" width="15" height="10" as="geometry" />
        </mxCell>
        <mxCell id="e-3lXU6PlFcb_SwNqCSh-33" value="" style="shape=image;verticalLabelPosition=bottom;labelBackgroundColor=default;verticalAlign=top;aspect=fixed;imageAspect=0;image=data:image/svg+xml,PHN2ZyB4bWxuczp4bGluaz0iaHR0cDovL3d3dy53My5vcmcvMTk5OS94bGluayIgeG1sbnM9Imh0dHA6Ly93d3cudzMub3JnLzIwMDAvc3ZnIiB2aWV3Qm94PSItLjIzOTA1MSAtLjI0MjQ1OSAxNS4zNzMxMzkgOS43ODA3NjIiIGhlaWdodD0iOS43ODA3NjJwdCIgd2lkdGg9IjE1LjM3MzEzOXB0IiB2ZXJzaW9uPSIxLjEiPiYjeGE7PGRlZnM+JiN4YTs8cGF0aCBkPSJNMi40MDI5ODktNC44MDU5NzhIMy41MDI4NjRDMy43MzAwMTItNC44MDU5NzggMy44NDk1NjQtNC44MDU5NzggMy44NDk1NjQtNS4wMjExNzFDMy44NDk1NjQtNS4xNTI2NzcgMy43Nzc4MzMtNS4xNTI2NzcgMy41Mzg3My01LjE1MjY3N0gyLjQ4NjY3NUwyLjkyOTAxNi02Ljg5ODEzMkMyLjk3NjgzNy03LjA2NTUwNCAyLjk3NjgzNy03LjA4OTQxNSAyLjk3NjgzNy03LjE3MzEwMUMyLjk3NjgzNy03LjM2NDM4NCAyLjgyMTQyLTcuNDcxOTggMi42NjYwMDItNy40NzE5OEMyLjU3MDM2MS03LjQ3MTk4IDIuMjk1MzkyLTcuNDM2MTE1IDIuMTk5NzUxLTcuMDUzNTQ5TDEuNzMzNDk5LTUuMTUyNjc3SC42MDk3MTRDLjM3MDYxLTUuMTUyNjc3IC4yNjMwMTQtNS4xNTI2NzcgLjI2MzAxNC00LjkyNTUyOUMuMjYzMDE0LTQuODA1OTc4IC4zNDY3LTQuODA1OTc4IC41NzM4NDgtNC44MDU5NzhIMS42Mzc4NThMLjg0ODgxNy0xLjY0OTgxM0MuNzUzMTc2LTEuMjMxMzgyIC43MTczMS0xLjExMTgzMSAuNzE3MzEtLjk1NjQxM0MuNzE3MzEtLjM5NDUyMSAxLjExMTgzMSAuMTE5NTUyIDEuNzgxMzIgLjExOTU1MkMyLjk4ODc5MiAuMTE5NTUyIDMuNjM0MzcxLTEuNjI1OTAzIDMuNjM0MzcxLTEuNzA5NTg5QzMuNjM0MzcxLTEuNzgxMzIgMy41ODY1NS0xLjgxNzE4NiAzLjUxNDgxOS0xLjgxNzE4NkMzLjQ5MDkwOS0xLjgxNzE4NiAzLjQ0MzA4OC0xLjgxNzE4NiAzLjQxOTE3OC0xLjc2OTM2NUMzLjQwNzIyMy0xLjc1NzQxIDMuMzk1MjY4LTEuNzQ1NDU1IDMuMzExNTgyLTEuNTU0MTcyQzMuMDYwNTIzLS45NTY0MTMgMi41MTA1ODUtLjExOTU1MiAxLjgxNzE4Ni0uMTE5NTUyQzEuNDU4NTMxLS4xMTk1NTIgMS40MzQ2Mi0uNDE4NDMxIDEuNDM0NjItLjY4MTQ0NUMxLjQzNDYyLS42OTM0IDEuNDM0NjItLjkyMDU0OCAxLjQ3MDQ4Ni0xLjA2NDAxTDIuNDAyOTg5LTQuODA1OTc4WiIgaWQ9ImcwLTExNiIvPiYjeGE7PHBhdGggZD0iTTUuMTUyNjc3LTguMzIwNzk3QzUuMDY4OTkxLTguNDg4MTY5IDUuMDQ1MDgxLTguNTM1OTkgNC44Nzc3MDktOC41MzU5OUM0LjY5ODM4MS04LjUzNTk5IDQuNjc0NDcxLTguNDg4MTY5IDQuNTkwNzg1LTguMzIwNzk3TC41OTc3NTgtLjIzOTEwM0MuNTczODQ4LS4yMDMyMzggLjU0OTkzOC0uMTMxNTA3IC41NDk5MzgtLjA4MzY4NkMuNTQ5OTM4LS4wMTE5NTUgLjU2MTg5MyAwIC44MDA5OTYgMEg4Ljk0MjQ2NkM5LjE4MTU2OSAwIDkuMTkzNTI0LS4wMTE5NTUgOS4xOTM1MjQtLjA4MzY4NkM5LjE5MzUyNC0uMTMxNTA3IDkuMTY5NjE0LS4yMDMyMzggOS4xNDU3MDQtLjIzOTEwM0w1LjE1MjY3Ny04LjMyMDc5N1pNNC41MDcwOTgtNy40MzYxMTVMNy43NzA4NTktLjgyNDkwN0gxLjI1NTI5M0w0LjUwNzA5OC03LjQzNjExNVoiIGlkPSJnMS0xIi8+JiN4YTs8L2RlZnM+JiN4YTs8ZyB0cmFuc2Zvcm09Im1hdHJpeCgxLjEzIDAgMCAxLjEzIC02My45ODYwNDMgLTY0Ljg5ODE2KSIgaWQ9InBhZ2UxIj4mI3hhOzx1c2UgeGxpbms6aHJlZj0iI2cxLTEiIHk9IjY1Ljc1MzQyNSIgeD0iNTYuNDEzMjY3Ii8+JiN4YTs8dXNlIHhsaW5rOmhyZWY9IiNnMC0xMTYiIHk9IjY1Ljc1MzQyNSIgeD0iNjYuMTY4MjUxIi8+JiN4YTs8L2c+JiN4YTs8L3N2Zz4=;imageBackground=none;" vertex="1" parent="1">
          <mxGeometry x="576.9985714285713" y="497.0028571428571" width="15" height="10" as="geometry" />
        </mxCell>
        <mxCell id="e-3lXU6PlFcb_SwNqCSh-34" value="Keeps original message timestamp" style="text;html=1;align=center;verticalAlign=middle;whiteSpace=wrap;rounded=0;fontFamily=Helvetica;fontSize=9;fontColor=default;labelBackgroundColor=none;fontStyle=2;horizontal=1;" vertex="1" parent="1">
          <mxGeometry x="572.69" y="450" width="99.88" height="30" as="geometry" />
        </mxCell>
        <mxCell id="e-3lXU6PlFcb_SwNqCSh-42" value="" style="group" vertex="1" connectable="0" parent="1">
          <mxGeometry x="839" y="455" width="107" height="30" as="geometry" />
        </mxCell>
        <mxCell id="e-3lXU6PlFcb_SwNqCSh-40" value="" style="shape=image;verticalLabelPosition=bottom;labelBackgroundColor=default;verticalAlign=top;aspect=fixed;imageAspect=0;image=data:image/svg+xml,PHN2ZyB4bWxuczp4bGluaz0iaHR0cDovL3d3dy53My5vcmcvMTk5OS94bGluayIgeG1sbnM9Imh0dHA6Ly93d3cudzMub3JnLzIwMDAvc3ZnIiB2aWV3Qm94PSItLjg5OTM0IC0uMzA0MTggNDcuMjk5NzMyIDEyLjI2NjQ4MSIgaGVpZ2h0PSIxMi4yNjY0ODFwdCIgd2lkdGg9IjQ3LjI5OTczMnB0IiB2ZXJzaW9uPSIxLjEiPiYjeGE7PGRlZnM+JiN4YTs8cGF0aCBkPSJNMy4xMjQyODQtMy4wMzY2MTNDMy4wNTI1NTMtMy4xNzIxMDUgMi44MjE0Mi0zLjUxNDgxOSAyLjMzNTI0My0zLjUxNDgxOUMxLjM4NjgtMy41MTQ4MTkgLjM0MjcxNS0yLjQwNjk3NCAuMzQyNzE1LTEuMjI3Mzk3Qy4zNDI3MTUtLjM5ODUwNiAuODc2NzEyIC4wNzk3MDEgMS40OTA0MTEgLjA3OTcwMUMyLjAwMDQ5OCAuMDc5NzAxIDIuNDM4ODU0LS4zMjY3NzUgMi41ODIzMTYtLjQ4NjE3N0MyLjcyNTc3OCAuMDYzNzYxIDMuMjY3NzQ2IC4wNzk3MDEgMy4zNjMzODcgLjA3OTcwMUMzLjczMDAxMiAuMDc5NzAxIDMuOTEzMzI1LS4yMjMxNjMgMy45NzcwODYtLjM1ODY1NUM0LjEzNjQ4OC0uNjQ1NTc5IDQuMjQ4MDctMS4xMDc4NDYgNC4yNDgwNy0xLjEzOTcyNkM0LjI0ODA3LTEuMTg3NTQ3IDQuMjE2MTg5LTEuMjQzMzM3IDQuMTIwNTQ4LTEuMjQzMzM3UzQuMDA4OTY2LTEuMTk1NTE3IDMuOTYxMTQ2LS45OTYyNjRDMy44NDk1NjQtLjU1NzkwOCAzLjY5ODEzMi0uMTQzNDYyIDMuMzg3Mjk4LS4xNDM0NjJDMy4yMDM5ODUtLjE0MzQ2MiAzLjEzMjI1NC0uMjk0ODk0IDMuMTMyMjU0LS41MTgwNTdDMy4xMzIyNTQtLjY1MzU0OSAzLjIwMzk4NS0uOTI0NTMzIDMuMjUxODA2LTEuMTIzNzg2UzMuNDE5MTc4LTEuODAxMjQ1IDMuNDUxMDU5LTEuOTQ0NzA3TDMuNjEwNDYxLTIuNTUwNDM2QzMuNjUwMzExLTIuNzQxNzE5IDMuNzM3OTgzLTMuMDc2NDYzIDMuNzM3OTgzLTMuMTE2MzE0QzMuNzM3OTgzLTMuMjk5NjI2IDMuNTg2NTUtMy4zNjMzODcgMy40ODI5MzktMy4zNjMzODdDMy4zNjMzODctMy4zNjMzODcgMy4xNjQxMzQtMy4yODM2ODYgMy4xMjQyODQtMy4wMzY2MTNaTTIuNTgyMzE2LS44NjA3NzJDMi4xODM4MTEtLjMxMDgzNCAxLjc2OTM2NS0uMTQzNDYyIDEuNTE0MzIxLS4xNDM0NjJDMS4xNDc2OTYtLjE0MzQ2MiAuOTY0Mzg0LS40NzgyMDcgLjk2NDM4NC0uODkyNjUzQy45NjQzODQtMS4yNjcyNDggMS4xNzk1NzctMi4xMjAwNSAxLjM1NDkxOS0yLjQ3MDczNUMxLjU4NjA1Mi0yLjk1NjkxMiAxLjk3NjU4OC0zLjI5MTY1NiAyLjM0MzIxMy0zLjI5MTY1NkMyLjg2MTI3LTMuMjkxNjU2IDMuMDEyNzAyLTIuNzA5ODM4IDMuMDEyNzAyLTIuNjE0MTk3QzMuMDEyNzAyLTIuNTgyMzE2IDIuODEzNDUtMS44MDEyNDUgMi43NjU2MjktMS41OTQwMjJDMi42NjIwMTctMS4yMTk0MjcgMi42NjIwMTctMS4yMDM0ODcgMi41ODIzMTYtLjg2MDc3MloiIGlkPSJnMC05NyIvPiYjeGE7PHBhdGggZD0iTTMuMjU5Nzc2LTMuMDUyNTUzQzIuOTMzMDAxLTMuMDEyNzAyIDIuODI5MzktMi43NjU2MjkgMi44MjkzOS0yLjYwNjIyN0MyLjgyOTM5LTIuMzc1MDkzIDMuMDM2NjEzLTIuMzExMzMzIDMuMTQwMjI0LTIuMzExMzMzQzMuMTgwMDc1LTIuMzExMzMzIDMuNTg2NTUtMi4zNDMyMTMgMy41ODY1NS0yLjgyOTM5UzMuMDYwNTIzLTMuNTE0ODE5IDIuNTgyMzE2LTMuNTE0ODE5QzEuNDUwNTYtMy41MTQ4MTkgLjM1MDY4NS0yLjQxNDk0NCAuMzUwNjg1LTEuMjk5MTI4Qy4zNTA2ODUtLjU0MTk2OCAuODY4NzQyIC4wNzk3MDEgMS43NTM0MjUgLjA3OTcwMUMzLjAxMjcwMiAuMDc5NzAxIDMuNjc0MjIyLS43MjUyOCAzLjY3NDIyMi0uODI4ODkyQzMuNjc0MjIyLS45MDA2MjMgMy41OTQ1MjEtLjk1NjQxMyAzLjU0NjctLjk1NjQxM1MzLjQ3NDk2OS0uOTMyNTAzIDMuNDM1MTE4LS44ODQ2ODJDMi44MDU0NzktLjE0MzQ2MiAxLjkxMjgyNy0uMTQzNDYyIDEuNzY5MzY1LS4xNDM0NjJDMS4zMzg5NzktLjE0MzQ2MiAuOTk2MjY0LS40MDY0NzYgLjk5NjI2NC0xLjAxMjIwNEMuOTk2MjY0LTEuMzYyODg5IDEuMTU1NjY2LTIuMjA3NzIxIDEuNTMwMjYyLTIuNzAxODY4QzEuODgwOTQ2LTMuMTQ4MTk0IDIuMjc5NDUyLTMuMjkxNjU2IDIuNTkwMjg2LTMuMjkxNjU2QzIuNjg1OTI4LTMuMjkxNjU2IDMuMDUyNTUzLTMuMjgzNjg2IDMuMjU5Nzc2LTMuMDUyNTUzWiIgaWQ9ImcwLTk5Ii8+JiN4YTs8cGF0aCBkPSJNNC4yODc5Mi01LjI5MjE1NEM0LjI5NTg5LTUuMzA4MDk1IDQuMzE5ODAxLTUuNDExNzA2IDQuMzE5ODAxLTUuNDE5Njc2QzQuMzE5ODAxLTUuNDU5NTI3IDQuMjg3OTItNS41MzEyNTggNC4xOTIyNzktNS41MzEyNThDNC4xNjAzOTktNS41MzEyNTggMy45MTMzMjUtNS41MDczNDcgMy43MzAwMTItNS40OTE0MDdMMy4yODM2ODYtNS40NTk1MjdDMy4xMDgzNDQtNS40NDM1ODcgMy4wMjg2NDMtNS40MzU2MTYgMy4wMjg2NDMtNS4yOTIxNTRDMy4wMjg2NDMtNS4xODA1NzMgMy4xNDAyMjQtNS4xODA1NzMgMy4yMzU4NjYtNS4xODA1NzNDMy42MTg0MzEtNS4xODA1NzMgMy42MTg0MzEtNS4xMzI3NTIgMy42MTg0MzEtNS4wNjEwMjFDMy42MTg0MzEtNS4wMTMyIDMuNTU0NjctNC43NTAxODcgMy41MTQ4MTktNC41OTA3ODVMMy4xMjQyODQtMy4wMzY2MTNDMy4wNTI1NTMtMy4xNzIxMDUgMi44MjE0Mi0zLjUxNDgxOSAyLjMzNTI0My0zLjUxNDgxOUMxLjM4NjgtMy41MTQ4MTkgLjM0MjcxNS0yLjQwNjk3NCAuMzQyNzE1LTEuMjI3Mzk3Qy4zNDI3MTUtLjM5ODUwNiAuODc2NzEyIC4wNzk3MDEgMS40OTA0MTEgLjA3OTcwMUMyLjAwMDQ5OCAuMDc5NzAxIDIuNDM4ODU0LS4zMjY3NzUgMi41ODIzMTYtLjQ4NjE3N0MyLjcyNTc3OCAuMDYzNzYxIDMuMjY3NzQ2IC4wNzk3MDEgMy4zNjMzODcgLjA3OTcwMUMzLjczMDAxMiAuMDc5NzAxIDMuOTEzMzI1LS4yMjMxNjMgMy45NzcwODYtLjM1ODY1NUM0LjEzNjQ4OC0uNjQ1NTc5IDQuMjQ4MDctMS4xMDc4NDYgNC4yNDgwNy0xLjEzOTcyNkM0LjI0ODA3LTEuMTg3NTQ3IDQuMjE2MTg5LTEuMjQzMzM3IDQuMTIwNTQ4LTEuMjQzMzM3UzQuMDA4OTY2LTEuMTk1NTE3IDMuOTYxMTQ2LS45OTYyNjRDMy44NDk1NjQtLjU1NzkwOCAzLjY5ODEzMi0uMTQzNDYyIDMuMzg3Mjk4LS4xNDM0NjJDMy4yMDM5ODUtLjE0MzQ2MiAzLjEzMjI1NC0uMjk0ODk0IDMuMTMyMjU0LS41MTgwNTdDMy4xMzIyNTQtLjY2OTQ4OSAzLjE1NjE2NC0uNzU3MTYxIDMuMTgwMDc1LS44NjA3NzJMNC4yODc5Mi01LjI5MjE1NFpNMi41ODIzMTYtLjg2MDc3MkMyLjE4MzgxMS0uMzEwODM0IDEuNzY5MzY1LS4xNDM0NjIgMS41MTQzMjEtLjE0MzQ2MkMxLjE0NzY5Ni0uMTQzNDYyIC45NjQzODQtLjQ3ODIwNyAuOTY0Mzg0LS44OTI2NTNDLjk2NDM4NC0xLjI2NzI0OCAxLjE3OTU3Ny0yLjEyMDA1IDEuMzU0OTE5LTIuNDcwNzM1QzEuNTg2MDUyLTIuOTU2OTEyIDEuOTc2NTg4LTMuMjkxNjU2IDIuMzQzMjEzLTMuMjkxNjU2QzIuODYxMjctMy4yOTE2NTYgMy4wMTI3MDItMi43MDk4MzggMy4wMTI3MDItMi42MTQxOTdDMy4wMTI3MDItMi41ODIzMTYgMi44MTM0NS0xLjgwMTI0NSAyLjc2NTYyOS0xLjU5NDAyMkMyLjY2MjAxNy0xLjIxOTQyNyAyLjY2MjAxNy0xLjIwMzQ4NyAyLjU4MjMxNi0uODYwNzcyWiIgaWQ9ImcwLTEwMCIvPiYjeGE7PHBhdGggZD0iTTEuNTk0MDIyLTEuMzA3MDk4QzEuNjE3OTMzLTEuNDI2NjUgMS42OTc2MzQtMS43Mjk1MTQgMS43MjE1NDQtMS44NDkwNjZDMS43NDU0NTUtMS45Mjg3NjcgMS43OTMyNzUtMi4xMjAwNSAxLjgwOTIxNS0yLjE5OTc1MUMxLjgyNTE1Ni0yLjIzOTYwMSAyLjA4ODE2OS0yLjc1NzY1OSAyLjQzODg1NC0zLjAyMDY3MkMyLjcwOTgzOC0zLjIyNzg5NSAyLjk3Mjg1Mi0zLjI5MTY1NiAzLjE5NjAxNS0zLjI5MTY1NkMzLjQ5MDkwOS0zLjI5MTY1NiAzLjY1MDMxMS0zLjExNjMxNCAzLjY1MDMxMS0yLjc0OTY4OUMzLjY1MDMxMS0yLjU1ODQwNiAzLjYwMjQ5MS0yLjM3NTA5MyAzLjUxNDgxOS0yLjAxNjQzOEMzLjQ1OTAyOS0xLjgwOTIxNSAzLjMyMzUzNy0xLjI3NTIxOCAzLjI3NTcxNi0xLjA2MDAyNUwzLjE1NjE2NC0uNTgxODE4QzMuMTE2MzE0LS40NDYzMjYgMy4wNjA1MjMtLjIwNzIyMyAzLjA2MDUyMy0uMTY3MzcyQzMuMDYwNTIzIC4wMTU5NCAzLjIxMTk1NSAuMDc5NzAxIDMuMzE1NTY3IC4wNzk3MDFDMy40NTkwMjkgLjA3OTcwMSAzLjU3ODU4LS4wMTU5NCAzLjYzNDM3MS0uMTExNTgyQzMuNjU4MjgxLS4xNTk0MDIgMy43MjIwNDItLjQzMDM4NiAzLjc2MTg5My0uNTk3NzU4TDMuOTQ1MjA1LTEuMzA3MDk4QzMuOTY5MTE2LTEuNDI2NjUgNC4wNDg4MTctMS43Mjk1MTQgNC4wNzI3MjctMS44NDkwNjZDNC4xODQzMDktMi4yNzk0NTIgNC4xODQzMDktMi4yODc0MjIgNC4zNjc2MjEtMi41NTA0MzZDNC42MzA2MzUtMi45NDA5NzEgNS4wMDUyMy0zLjI5MTY1NiA1LjUzOTIyOC0zLjI5MTY1NkM1LjgyNjE1Mi0zLjI5MTY1NiA1Ljk5MzUyNC0zLjEyNDI4NCA1Ljk5MzUyNC0yLjc0OTY4OUM1Ljk5MzUyNC0yLjMxMTMzMyA1LjY1ODc4LTEuMzk0NzcgNS41MDczNDctMS4wMTIyMDRDNS40Mjc2NDYtLjgwNDk4MSA1LjQwMzczNi0uNzQ5MTkxIDUuNDAzNzM2LS41OTc3NThDNS40MDM3MzYtLjE0MzQ2MiA1Ljc3ODMzMSAuMDc5NzAxIDYuMTIxMDQ2IC4wNzk3MDFDNi45MDIxMTcgLjA3OTcwMSA3LjIyODg5Mi0xLjAzNjExNSA3LjIyODg5Mi0xLjEzOTcyNkM3LjIyODg5Mi0xLjIxOTQyNyA3LjE2NTEzMS0xLjI0MzMzNyA3LjEwOTM0LTEuMjQzMzM3QzcuMDEzNjk5LTEuMjQzMzM3IDYuOTk3NzU4LTEuMTg3NTQ3IDYuOTczODQ4LTEuMTA3ODQ2QzYuNzgyNTY1LS40NDYzMjYgNi40NDc4MjEtLjE0MzQ2MiA2LjE0NDk1Ni0uMTQzNDYyQzYuMDE3NDM1LS4xNDM0NjIgNS45NTM2NzQtLjIyMzE2MyA1Ljk1MzY3NC0uNDA2NDc2UzYuMDE3NDM1LS43NjUxMzEgNi4wOTcxMzYtLjk2NDM4NEM2LjIxNjY4Ny0xLjI2NzI0OCA2LjU2NzM3Mi0yLjE4MzgxMSA2LjU2NzM3Mi0yLjYzMDEzN0M2LjU2NzM3Mi0zLjIyNzg5NSA2LjE1MjkyNy0zLjUxNDgxOSA1LjU3OTA3OC0zLjUxNDgxOUM1LjAyOTE0MS0zLjUxNDgxOSA0LjU3NDg0NC0zLjIyNzg5NSA0LjIxNjE4OS0yLjczMzc0OEM0LjE1MjQyOC0zLjM3MTM1NyAzLjY0MjM0MS0zLjUxNDgxOSAzLjIyNzg5NS0zLjUxNDgxOUMyLjg2MTI3LTMuNTE0ODE5IDIuMzc1MDkzLTMuMzg3Mjk4IDEuOTM2NzM3LTIuODEzNDVDMS44ODA5NDYtMy4yOTE2NTYgMS40OTgzODEtMy41MTQ4MTkgMS4xMjM3ODYtMy41MTQ4MTlDLjg0NDgzMi0zLjUxNDgxOSAuNjQ1NTc5LTMuMzQ3NDQ3IC41MTAwODctMy4wNzY0NjNDLjMxODgwNC0yLjcwMTg2OCAuMjM5MTAzLTIuMzExMzMzIC4yMzkxMDMtMi4yOTUzOTJDLjIzOTEwMy0yLjIyMzY2MSAuMjk0ODk0LTIuMTkxNzgxIC4zNTg2NTUtMi4xOTE3ODFDLjQ2MjI2Ny0yLjE5MTc4MSAuNDcwMjM3LTIuMjIzNjYxIC41MjYwMjctMi40MzA4ODRDLjYyMTY2OS0yLjgyMTQyIC43NjUxMzEtMy4yOTE2NTYgMS4wOTk4NzUtMy4yOTE2NTZDMS4zMDcwOTgtMy4yOTE2NTYgMS4zNTQ5MTktMy4wOTI0MDMgMS4zNTQ5MTktMi45MTcwNjFDMS4zNTQ5MTktMi43NzM1OTkgMS4zMTUwNjgtMi42MjIxNjcgMS4yNTEzMDgtMi4zNTkxNTNDMS4yMzUzNjctMi4yOTUzOTIgMS4xMTU4MTYtMS44MjUxNTYgMS4wODM5MzUtMS43MTM1NzRMLjc4OTA0MS0uNTE4MDU3Qy43NTcxNjEtLjM5ODUwNiAuNzA5MzQtLjE5OTI1MyAuNzA5MzQtLjE2NzM3MkMuNzA5MzQgLjAxNTk0IC44NjA3NzIgLjA3OTcwMSAuOTY0Mzg0IC4wNzk3MDFDMS4xMDc4NDYgLjA3OTcwMSAxLjIyNzM5Ny0uMDE1OTQgMS4yODMxODgtLjExMTU4MkMxLjMwNzA5OC0uMTU5NDAyIDEuMzcwODU5LS40MzAzODYgMS40MTA3MS0uNTk3NzU4TDEuNTk0MDIyLTEuMzA3MDk4WiIgaWQ9ImcwLTEwOSIvPiYjeGE7PHBhdGggZD0iTTEuNTk0MDIyLTEuMzA3MDk4QzEuNjE3OTMzLTEuNDI2NjUgMS42OTc2MzQtMS43Mjk1MTQgMS43MjE1NDQtMS44NDkwNjZDMS44MzMxMjYtMi4yNzk0NTIgMS44MzMxMjYtMi4yODc0MjIgMi4wMTY0MzgtMi41NTA0MzZDMi4yNzk0NTItMi45NDA5NzEgMi42NTQwNDctMy4yOTE2NTYgMy4xODgwNDUtMy4yOTE2NTZDMy40NzQ5NjktMy4yOTE2NTYgMy42NDIzNDEtMy4xMjQyODQgMy42NDIzNDEtMi43NDk2ODlDMy42NDIzNDEtMi4zMTEzMzMgMy4zMDc1OTctMS40MDI3NCAzLjE1NjE2NC0xLjAxMjIwNEMzLjA1MjU1My0uNzQ5MTkxIDMuMDUyNTUzLS43MDEzNyAzLjA1MjU1My0uNTk3NzU4QzMuMDUyNTUzLS4xNDM0NjIgMy40MjcxNDggLjA3OTcwMSAzLjc2OTg2MyAuMDc5NzAxQzQuNTUwOTM0IC4wNzk3MDEgNC44Nzc3MDktMS4wMzYxMTUgNC44Nzc3MDktMS4xMzk3MjZDNC44Nzc3MDktMS4yMTk0MjcgNC44MTM5NDgtMS4yNDMzMzcgNC43NTgxNTctMS4yNDMzMzdDNC42NjI1MTYtMS4yNDMzMzcgNC42NDY1NzUtMS4xODc1NDcgNC42MjI2NjUtMS4xMDc4NDZDNC40MzEzODItLjQ1NDI5NiA0LjA5NjYzOC0uMTQzNDYyIDMuNzkzNzczLS4xNDM0NjJDMy42NjYyNTItLjE0MzQ2MiAzLjYwMjQ5MS0uMjIzMTYzIDMuNjAyNDkxLS40MDY0NzZTMy42NjYyNTItLjc2NTEzMSAzLjc0NTk1My0uOTY0Mzg0QzMuODY1NTA0LTEuMjY3MjQ4IDQuMjE2MTg5LTIuMTgzODExIDQuMjE2MTg5LTIuNjMwMTM3QzQuMjE2MTg5LTMuMjI3ODk1IDMuODAxNzQzLTMuNTE0ODE5IDMuMjI3ODk1LTMuNTE0ODE5QzIuNTgyMzE2LTMuNTE0ODE5IDIuMTY3ODctMy4xMjQyODQgMS45MzY3MzctMi44MjE0MkMxLjg4MDk0Ni0zLjI1OTc3NiAxLjUzMDI2Mi0zLjUxNDgxOSAxLjEyMzc4Ni0zLjUxNDgxOUMuODM2ODYyLTMuNTE0ODE5IC42Mzc2MDktMy4zMzE1MDcgLjUxMDA4Ny0zLjA4NDQzM0MuMzE4ODA0LTIuNzA5ODM4IC4yMzkxMDMtMi4zMTEzMzMgLjIzOTEwMy0yLjI5NTM5MkMuMjM5MTAzLTIuMjIzNjYxIC4yOTQ4OTQtMi4xOTE3ODEgLjM1ODY1NS0yLjE5MTc4MUMuNDYyMjY3LTIuMTkxNzgxIC40NzAyMzctMi4yMjM2NjEgLjUyNjAyNy0yLjQzMDg4NEMuNjIxNjY5LTIuODIxNDIgLjc2NTEzMS0zLjI5MTY1NiAxLjA5OTg3NS0zLjI5MTY1NkMxLjMwNzA5OC0zLjI5MTY1NiAxLjM1NDkxOS0zLjA5MjQwMyAxLjM1NDkxOS0yLjkxNzA2MUMxLjM1NDkxOS0yLjc3MzU5OSAxLjMxNTA2OC0yLjYyMjE2NyAxLjI1MTMwOC0yLjM1OTE1M0MxLjIzNTM2Ny0yLjI5NTM5MiAxLjExNTgxNi0xLjgyNTE1NiAxLjA4MzkzNS0xLjcxMzU3NEwuNzg5MDQxLS41MTgwNTdDLjc1NzE2MS0uMzk4NTA2IC43MDkzNC0uMTk5MjUzIC43MDkzNC0uMTY3MzcyQy43MDkzNCAuMDE1OTQgLjg2MDc3MiAuMDc5NzAxIC45NjQzODQgLjA3OTcwMUMxLjEwNzg0NiAuMDc5NzAxIDEuMjI3Mzk3LS4wMTU5NCAxLjI4MzE4OC0uMTExNTgyQzEuMzA3MDk4LS4xNTk0MDIgMS4zNzA4NTktLjQzMDM4NiAxLjQxMDcxLS41OTc3NThMMS41OTQwMjItMS4zMDcwOThaIiBpZD0iZzAtMTEwIi8+JiN4YTs8cGF0aCBkPSJNMy45NjkxMTYtMi4xMzU5OUMzLjk2OTExNi0yLjkxNzA2MSAzLjQxMTIwOC0zLjUxNDgxOSAyLjU4MjMxNi0zLjUxNDgxOUMxLjQ1MDU2LTMuNTE0ODE5IC4zNTA2ODUtMi40MTQ5NDQgLjM1MDY4NS0xLjI5OTEyOEMuMzUwNjg1LS40ODYxNzcgLjkyNDUzMyAuMDc5NzAxIDEuNzM3NDg0IC4wNzk3MDFDMi44NzcyMSAuMDc5NzAxIDMuOTY5MTE2LTEuMDM2MTE1IDMuOTY5MTE2LTIuMTM1OTlaTTEuNzQ1NDU1LS4xNDM0NjJDMS40NjY1MDEtLjE0MzQ2MiAuOTk2MjY0LS4yODY5MjQgLjk5NjI2NC0xLjAyMDE3NEMuOTk2MjY0LTEuMzQ2OTQ5IDEuMTQ3Njk2LTIuMjA3NzIxIDEuNTMwMjYyLTIuNzAxODY4QzEuOTIwNzk3LTMuMjAzOTg1IDIuMzU5MTUzLTMuMjkxNjU2IDIuNTc0MzQ2LTMuMjkxNjU2QzIuOTAxMTIxLTMuMjkxNjU2IDMuMzIzNTM3LTMuMDkyNDAzIDMuMzIzNTM3LTIuNDIyOTE0QzMuMzIzNTM3LTIuMTA0MTEgMy4xODAwNzUtMS4zNDY5NDkgMi44NzcyMS0uODY4NzQyQzIuNTgyMzE2LS40MTQ0NDYgMi4xNDM5Ni0uMTQzNDYyIDEuNzQ1NDU1LS4xNDM0NjJaIiBpZD0iZzAtMTExIi8+JiN4YTs8cGF0aCBkPSJNNS4zMzIwMDUtNC44MDU5NzhDNS41NzExMDgtNC44MDU5NzggNS42NjY3NS00LjgwNTk3OCA1LjY2Njc1LTUuMDMzMTI2QzUuNjY2NzUtNS4xNTI2NzcgNS41NzExMDgtNS4xNTI2NzcgNS4zNTU5MTUtNS4xNTI2NzdINC4zODc1NDdDNC42MTQ2OTUtNi4zODQwNiA0Ljc4MjA2Ny03LjIzMjg3NyA0Ljg3NzcwOS03LjYxNTQ0MkM0Ljk0OTQ0LTcuOTAyMzY2IDUuMjAwNDk4LTguMTc3MzM1IDUuNTExMzMzLTguMTc3MzM1QzUuNzYyMzkxLTguMTc3MzM1IDYuMDEzNDUtOC4wNjk3MzggNi4xMzMwMDEtNy45NjIxNDJDNS42NjY3NS03LjkxNDMyMSA1LjUyMzI4OC03LjU2NzYyMSA1LjUyMzI4OC03LjM2NDM4NEM1LjUyMzI4OC03LjEyNTI4IDUuNzAyNjE1LTYuOTgxODE4IDUuOTI5NzYzLTYuOTgxODE4QzYuMTY4ODY3LTYuOTgxODE4IDYuNTI3NTIyLTcuMTg1MDU2IDYuNTI3NTIyLTcuNjM5MzUyQzYuNTI3NTIyLTguMTQxNDY5IDYuMDI1NDA1LTguNDE2NDM4IDUuNDk5Mzc3LTguNDE2NDM4QzQuOTg1MzA1LTguNDE2NDM4IDQuNDgzMTg4LTguMDMzODczIDQuMjQ0MDg1LTcuNTY3NjIxQzQuMDI4ODkyLTcuMTQ5MTkxIDMuOTA5MzQtNi43MTg4MDQgMy42MzQzNzEtNS4xNTI2NzdIMi44MzMzNzVDMi42MDYyMjctNS4xNTI2NzcgMi40ODY2NzUtNS4xNTI2NzcgMi40ODY2NzUtNC45Mzc0ODRDMi40ODY2NzUtNC44MDU5NzggMi41NTg0MDYtNC44MDU5NzggMi43OTc1MDktNC44MDU5NzhIMy41NjI2NEMzLjM0NzQ0Ny0zLjY5NDE0NyAyLjg1NzI4NS0uOTkyMjc5IDIuNTgyMzE2IC4yODY5MjRDMi4zNzkwNzggMS4zMjcwMjQgMi4xOTk3NTEgMi4xOTk3NTEgMS42MDE5OTMgMi4xOTk3NTFDMS41NjYxMjcgMi4xOTk3NTEgMS4yMTk0MjcgMi4xOTk3NTEgMS4wMDQyMzQgMS45NzI2MDNDMS42MTM5NDggMS45MjQ3ODIgMS42MTM5NDggMS4zOTg3NTUgMS42MTM5NDggMS4zODY4QzEuNjEzOTQ4IDEuMTQ3Njk2IDEuNDM0NjIgMS4wMDQyMzQgMS4yMDc0NzIgMS4wMDQyMzRDLjk2ODM2OSAxLjAwNDIzNCAuNjA5NzE0IDEuMjA3NDcyIC42MDk3MTQgMS42NjE3NjhDLjYwOTcxNCAyLjE3NTg0MSAxLjEzNTc0MSAyLjQzODg1NCAxLjYwMTk5MyAyLjQzODg1NEMyLjgyMTQyIDIuNDM4ODU0IDMuMzIzNTM3IC4yNTEwNTkgMy40NTUwNDQtLjM0NjdDMy42NzAyMzctMS4yNjcyNDggNC4yNTYwNC00LjQ0NzMyMyA0LjMxNTgxNi00LjgwNTk3OEg1LjMzMjAwNVoiIGlkPSJnMS0xMDIiLz4mI3hhOzwvZGVmcz4mI3hhOzxnIHRyYW5zZm9ybT0ibWF0cml4KDEuMTMgMCAwIDEuMTMgLTI0MC43MjM0NTEgLTgxLjQxODc2KSIgaWQ9InBhZ2UxIj4mI3hhOzx1c2UgeGxpbms6aHJlZj0iI2cxLTEwMiIgeT0iODAuMTk5MjUzIiB4PSIyMTEuNjI0MDEyIi8+JiN4YTs8dXNlIHhsaW5rOmhyZWY9IiNnMC05OSIgeT0iODEuOTkyNTE2IiB4PSIyMTcuMzk0MDAxIi8+JiN4YTs8dXNlIHhsaW5rOmhyZWY9IiNnMC0xMTEiIHk9IjgxLjk5MjUxNiIgeD0iMjIxLjA2MTc4MSIvPiYjeGE7PHVzZSB4bGluazpocmVmPSIjZzAtMTA5IiB5PSI4MS45OTI1MTYiIHg9IjIyNS4xNTQ4MyIvPiYjeGE7PHVzZSB4bGluazpocmVmPSIjZzAtMTA5IiB5PSI4MS45OTI1MTYiIHg9IjIzMi42NDUzNTYiLz4mI3hhOzx1c2UgeGxpbms6aHJlZj0iI2cwLTk3IiB5PSI4MS45OTI1MTYiIHg9IjI0MC4xMzU4ODMiLz4mI3hhOzx1c2UgeGxpbms6aHJlZj0iI2cwLTExMCIgeT0iODEuOTkyNTE2IiB4PSIyNDQuNjMzODkyIi8+JiN4YTs8dXNlIHhsaW5rOmhyZWY9IiNnMC0xMDAiIHk9IjgxLjk5MjUxNiIgeD0iMjQ5Ljc3MjA5NSIvPiYjeGE7PC9nPiYjeGE7PC9zdmc+;" vertex="1" parent="e-3lXU6PlFcb_SwNqCSh-42">
          <mxGeometry x="60" y="9" width="47" height="12" as="geometry" />
        </mxCell>
        <mxCell id="e-3lXU6PlFcb_SwNqCSh-41" value="Pub rate:&amp;nbsp;" style="text;html=1;align=center;verticalAlign=middle;resizable=1;points=[];autosize=1;strokeColor=none;fillColor=none;fontFamily=Helvetica;fontSize=10;fontColor=default;labelBackgroundColor=none;movable=1;rotatable=1;deletable=1;editable=1;locked=0;connectable=1;" vertex="1" parent="e-3lXU6PlFcb_SwNqCSh-42">
          <mxGeometry width="70" height="30" as="geometry" />
        </mxCell>
        <mxCell id="e-3lXU6PlFcb_SwNqCSh-43" value="" style="group" vertex="1" connectable="0" parent="1">
          <mxGeometry x="172" y="455" width="102" height="30" as="geometry" />
        </mxCell>
        <mxCell id="e-3lXU6PlFcb_SwNqCSh-36" value="" style="shape=image;verticalLabelPosition=bottom;labelBackgroundColor=default;verticalAlign=top;aspect=fixed;imageAspect=0;image=data:image/svg+xml,PHN2ZyB4bWxuczp4bGluaz0iaHR0cDovL3d3dy53My5vcmcvMTk5OS94bGluayIgeG1sbnM9Imh0dHA6Ly93d3cudzMub3JnLzIwMDAvc3ZnIiB2aWV3Qm94PSItLjkwNzg0NiAtLjMwNDE4IDQyLjUxODM5OCAxMi4yNjY0ODEiIGhlaWdodD0iMTIuMjY2NDgxcHQiIHdpZHRoPSI0Mi41MTgzOThwdCIgdmVyc2lvbj0iMS4xIj4mI3hhOzxkZWZzPiYjeGE7PHBhdGggZD0iTTMuMTI0Mjg0LTMuMDM2NjEzQzMuMDUyNTUzLTMuMTcyMTA1IDIuODIxNDItMy41MTQ4MTkgMi4zMzUyNDMtMy41MTQ4MTlDMS4zODY4LTMuNTE0ODE5IC4zNDI3MTUtMi40MDY5NzQgLjM0MjcxNS0xLjIyNzM5N0MuMzQyNzE1LS4zOTg1MDYgLjg3NjcxMiAuMDc5NzAxIDEuNDkwNDExIC4wNzk3MDFDMi4wMDA0OTggLjA3OTcwMSAyLjQzODg1NC0uMzI2Nzc1IDIuNTgyMzE2LS40ODYxNzdDMi43MjU3NzggLjA2Mzc2MSAzLjI2Nzc0NiAuMDc5NzAxIDMuMzYzMzg3IC4wNzk3MDFDMy43MzAwMTIgLjA3OTcwMSAzLjkxMzMyNS0uMjIzMTYzIDMuOTc3MDg2LS4zNTg2NTVDNC4xMzY0ODgtLjY0NTU3OSA0LjI0ODA3LTEuMTA3ODQ2IDQuMjQ4MDctMS4xMzk3MjZDNC4yNDgwNy0xLjE4NzU0NyA0LjIxNjE4OS0xLjI0MzMzNyA0LjEyMDU0OC0xLjI0MzMzN1M0LjAwODk2Ni0xLjE5NTUxNyAzLjk2MTE0Ni0uOTk2MjY0QzMuODQ5NTY0LS41NTc5MDggMy42OTgxMzItLjE0MzQ2MiAzLjM4NzI5OC0uMTQzNDYyQzMuMjAzOTg1LS4xNDM0NjIgMy4xMzIyNTQtLjI5NDg5NCAzLjEzMjI1NC0uNTE4MDU3QzMuMTMyMjU0LS42NTM1NDkgMy4yMDM5ODUtLjkyNDUzMyAzLjI1MTgwNi0xLjEyMzc4NlMzLjQxOTE3OC0xLjgwMTI0NSAzLjQ1MTA1OS0xLjk0NDcwN0wzLjYxMDQ2MS0yLjU1MDQzNkMzLjY1MDMxMS0yLjc0MTcxOSAzLjczNzk4My0zLjA3NjQ2MyAzLjczNzk4My0zLjExNjMxNEMzLjczNzk4My0zLjI5OTYyNiAzLjU4NjU1LTMuMzYzMzg3IDMuNDgyOTM5LTMuMzYzMzg3QzMuMzYzMzg3LTMuMzYzMzg3IDMuMTY0MTM0LTMuMjgzNjg2IDMuMTI0Mjg0LTMuMDM2NjEzWk0yLjU4MjMxNi0uODYwNzcyQzIuMTgzODExLS4zMTA4MzQgMS43NjkzNjUtLjE0MzQ2MiAxLjUxNDMyMS0uMTQzNDYyQzEuMTQ3Njk2LS4xNDM0NjIgLjk2NDM4NC0uNDc4MjA3IC45NjQzODQtLjg5MjY1M0MuOTY0Mzg0LTEuMjY3MjQ4IDEuMTc5NTc3LTIuMTIwMDUgMS4zNTQ5MTktMi40NzA3MzVDMS41ODYwNTItMi45NTY5MTIgMS45NzY1ODgtMy4yOTE2NTYgMi4zNDMyMTMtMy4yOTE2NTZDMi44NjEyNy0zLjI5MTY1NiAzLjAxMjcwMi0yLjcwOTgzOCAzLjAxMjcwMi0yLjYxNDE5N0MzLjAxMjcwMi0yLjU4MjMxNiAyLjgxMzQ1LTEuODAxMjQ1IDIuNzY1NjI5LTEuNTk0MDIyQzIuNjYyMDE3LTEuMjE5NDI3IDIuNjYyMDE3LTEuMjAzNDg3IDIuNTgyMzE2LS44NjA3NzJaIiBpZD0iZzAtOTciLz4mI3hhOzxwYXRoIGQ9Ik0xLjYwMTk5My0xLjgxNzE4NkMxLjc3NzMzNS0xLjgxNzE4NiAyLjM3NTA5My0xLjgyNTE1NiAyLjc5NzUwOS0xLjk3NjU4OEMzLjQ5MDkwOS0yLjIxNTY5MSAzLjUxNDgxOS0yLjY5Mzg5OCAzLjUxNDgxOS0yLjgxMzQ1QzMuNTE0ODE5LTMuMjU5Nzc2IDMuMDkyNDAzLTMuNTE0ODE5IDIuNTc0MzQ2LTMuNTE0ODE5QzEuNjczNzI0LTMuNTE0ODE5IC4zOTA1MzUtMi44MDU0NzkgLjM5MDUzNS0xLjM5NDc3Qy4zOTA1MzUtLjU4MTgxOCAuODg0NjgyIC4wNzk3MDEgMS43NjEzOTUgLjA3OTcwMUMzLjAwNDczMiAuMDc5NzAxIDMuNjc0MjIyLS43MTczMSAzLjY3NDIyMi0uODI4ODkyQzMuNjc0MjIyLS45MDA2MjMgMy41OTQ1MjEtLjk1NjQxMyAzLjU0NjctLjk1NjQxM1MzLjQ3NDk2OS0uOTMyNTAzIDMuNDM1MTE4LS44ODQ2ODJDMi44MDU0NzktLjE0MzQ2MiAxLjkxMjgyNy0uMTQzNDYyIDEuNzc3MzM1LS4xNDM0NjJDMS4xOTU1MTctLjE0MzQ2MiAxLjAyMDE3NC0uNjM3NjA5IDEuMDIwMTc0LTEuMDgzOTM1QzEuMDIwMTc0LTEuMzIzMDM5IDEuMDkxOTA1LTEuNjgxNjk0IDEuMTIzNzg2LTEuODE3MTg2SDEuNjAxOTkzWk0xLjE4NzU0Ny0yLjA0MDM0OUMxLjQ0MjU5LTMuMDEyNzAyIDIuMTY3ODctMy4yOTE2NTYgMi41NzQzNDYtMy4yOTE2NTZDMi44OTMxNTEtMy4yOTE2NTYgMy4xOTYwMTUtMy4xMzIyNTQgMy4xOTYwMTUtMi44MTM0NUMzLjE5NjAxNS0yLjA0MDM0OSAxLjg4ODkxNy0yLjA0MDM0OSAxLjU1NDE3Mi0yLjA0MDM0OUgxLjE4NzU0N1oiIGlkPSJnMC0xMDEiLz4mI3hhOzxwYXRoIGQ9Ik0xLjU5NDAyMi0xLjMwNzA5OEMxLjYxNzkzMy0xLjQyNjY1IDEuNjk3NjM0LTEuNzI5NTE0IDEuNzIxNTQ0LTEuODQ5MDY2QzEuNzQ1NDU1LTEuOTI4NzY3IDEuNzkzMjc1LTIuMTIwMDUgMS44MDkyMTUtMi4xOTk3NTFDMS44MjUxNTYtMi4yMzk2MDEgMi4wODgxNjktMi43NTc2NTkgMi40Mzg4NTQtMy4wMjA2NzJDMi43MDk4MzgtMy4yMjc4OTUgMi45NzI4NTItMy4yOTE2NTYgMy4xOTYwMTUtMy4yOTE2NTZDMy40OTA5MDktMy4yOTE2NTYgMy42NTAzMTEtMy4xMTYzMTQgMy42NTAzMTEtMi43NDk2ODlDMy42NTAzMTEtMi41NTg0MDYgMy42MDI0OTEtMi4zNzUwOTMgMy41MTQ4MTktMi4wMTY0MzhDMy40NTkwMjktMS44MDkyMTUgMy4zMjM1MzctMS4yNzUyMTggMy4yNzU3MTYtMS4wNjAwMjVMMy4xNTYxNjQtLjU4MTgxOEMzLjExNjMxNC0uNDQ2MzI2IDMuMDYwNTIzLS4yMDcyMjMgMy4wNjA1MjMtLjE2NzM3MkMzLjA2MDUyMyAuMDE1OTQgMy4yMTE5NTUgLjA3OTcwMSAzLjMxNTU2NyAuMDc5NzAxQzMuNDU5MDI5IC4wNzk3MDEgMy41Nzg1OC0uMDE1OTQgMy42MzQzNzEtLjExMTU4MkMzLjY1ODI4MS0uMTU5NDAyIDMuNzIyMDQyLS40MzAzODYgMy43NjE4OTMtLjU5Nzc1OEwzLjk0NTIwNS0xLjMwNzA5OEMzLjk2OTExNi0xLjQyNjY1IDQuMDQ4ODE3LTEuNzI5NTE0IDQuMDcyNzI3LTEuODQ5MDY2QzQuMTg0MzA5LTIuMjc5NDUyIDQuMTg0MzA5LTIuMjg3NDIyIDQuMzY3NjIxLTIuNTUwNDM2QzQuNjMwNjM1LTIuOTQwOTcxIDUuMDA1MjMtMy4yOTE2NTYgNS41MzkyMjgtMy4yOTE2NTZDNS44MjYxNTItMy4yOTE2NTYgNS45OTM1MjQtMy4xMjQyODQgNS45OTM1MjQtMi43NDk2ODlDNS45OTM1MjQtMi4zMTEzMzMgNS42NTg3OC0xLjM5NDc3IDUuNTA3MzQ3LTEuMDEyMjA0QzUuNDI3NjQ2LS44MDQ5ODEgNS40MDM3MzYtLjc0OTE5MSA1LjQwMzczNi0uNTk3NzU4QzUuNDAzNzM2LS4xNDM0NjIgNS43NzgzMzEgLjA3OTcwMSA2LjEyMTA0NiAuMDc5NzAxQzYuOTAyMTE3IC4wNzk3MDEgNy4yMjg4OTItMS4wMzYxMTUgNy4yMjg4OTItMS4xMzk3MjZDNy4yMjg4OTItMS4yMTk0MjcgNy4xNjUxMzEtMS4yNDMzMzcgNy4xMDkzNC0xLjI0MzMzN0M3LjAxMzY5OS0xLjI0MzMzNyA2Ljk5Nzc1OC0xLjE4NzU0NyA2Ljk3Mzg0OC0xLjEwNzg0NkM2Ljc4MjU2NS0uNDQ2MzI2IDYuNDQ3ODIxLS4xNDM0NjIgNi4xNDQ5NTYtLjE0MzQ2MkM2LjAxNzQzNS0uMTQzNDYyIDUuOTUzNjc0LS4yMjMxNjMgNS45NTM2NzQtLjQwNjQ3NlM2LjAxNzQzNS0uNzY1MTMxIDYuMDk3MTM2LS45NjQzODRDNi4yMTY2ODctMS4yNjcyNDggNi41NjczNzItMi4xODM4MTEgNi41NjczNzItMi42MzAxMzdDNi41NjczNzItMy4yMjc4OTUgNi4xNTI5MjctMy41MTQ4MTkgNS41NzkwNzgtMy41MTQ4MTlDNS4wMjkxNDEtMy41MTQ4MTkgNC41NzQ4NDQtMy4yMjc4OTUgNC4yMTYxODktMi43MzM3NDhDNC4xNTI0MjgtMy4zNzEzNTcgMy42NDIzNDEtMy41MTQ4MTkgMy4yMjc4OTUtMy41MTQ4MTlDMi44NjEyNy0zLjUxNDgxOSAyLjM3NTA5My0zLjM4NzI5OCAxLjkzNjczNy0yLjgxMzQ1QzEuODgwOTQ2LTMuMjkxNjU2IDEuNDk4MzgxLTMuNTE0ODE5IDEuMTIzNzg2LTMuNTE0ODE5Qy44NDQ4MzItMy41MTQ4MTkgLjY0NTU3OS0zLjM0NzQ0NyAuNTEwMDg3LTMuMDc2NDYzQy4zMTg4MDQtMi43MDE4NjggLjIzOTEwMy0yLjMxMTMzMyAuMjM5MTAzLTIuMjk1MzkyQy4yMzkxMDMtMi4yMjM2NjEgLjI5NDg5NC0yLjE5MTc4MSAuMzU4NjU1LTIuMTkxNzgxQy40NjIyNjctMi4xOTE3ODEgLjQ3MDIzNy0yLjIyMzY2MSAuNTI2MDI3LTIuNDMwODg0Qy42MjE2NjktMi44MjE0MiAuNzY1MTMxLTMuMjkxNjU2IDEuMDk5ODc1LTMuMjkxNjU2QzEuMzA3MDk4LTMuMjkxNjU2IDEuMzU0OTE5LTMuMDkyNDAzIDEuMzU0OTE5LTIuOTE3MDYxQzEuMzU0OTE5LTIuNzczNTk5IDEuMzE1MDY4LTIuNjIyMTY3IDEuMjUxMzA4LTIuMzU5MTUzQzEuMjM1MzY3LTIuMjk1MzkyIDEuMTE1ODE2LTEuODI1MTU2IDEuMDgzOTM1LTEuNzEzNTc0TC43ODkwNDEtLjUxODA1N0MuNzU3MTYxLS4zOTg1MDYgLjcwOTM0LS4xOTkyNTMgLjcwOTM0LS4xNjczNzJDLjcwOTM0IC4wMTU5NCAuODYwNzcyIC4wNzk3MDEgLjk2NDM4NCAuMDc5NzAxQzEuMTA3ODQ2IC4wNzk3MDEgMS4yMjczOTctLjAxNTk0IDEuMjgzMTg4LS4xMTE1ODJDMS4zMDcwOTgtLjE1OTQwMiAxLjM3MDg1OS0uNDMwMzg2IDEuNDEwNzEtLjU5Nzc1OEwxLjU5NDAyMi0xLjMwNzA5OFoiIGlkPSJnMC0xMDkiLz4mI3hhOzxwYXRoIGQ9Ik0xLjUzODIzMi0xLjA5OTg3NUMxLjYyNTkwMy0xLjQ0MjU5IDEuNzEzNTc0LTEuNzg1MzA1IDEuNzkzMjc1LTIuMTM1OTlDMS44MDEyNDUtMi4xNTE5MyAxLjg1NzAzNi0yLjM4MzA2NCAxLjg2NTAwNi0yLjQyMjkxNEMxLjg4ODkxNy0yLjQ5NDY0NSAyLjA4ODE2OS0yLjgyMTQyIDIuMjk1MzkyLTMuMDIwNjcyQzIuNTUwNDM2LTMuMjUxODA2IDIuODIxNDItMy4yOTE2NTYgMi45NjQ4ODItMy4yOTE2NTZDMy4wNTI1NTMtMy4yOTE2NTYgMy4xOTYwMTUtMy4yODM2ODYgMy4zMDc1OTctMy4xODgwNDVDMi45NjQ4ODItMy4xMTYzMTQgMi45MTcwNjEtMi44MjE0MiAyLjkxNzA2MS0yLjc0OTY4OUMyLjkxNzA2MS0yLjU3NDM0NiAzLjA1MjU1My0yLjQ1NDc5NSAzLjIyNzg5NS0yLjQ1NDc5NUMzLjQ0MzA4OC0yLjQ1NDc5NSAzLjY4MjE5Mi0yLjYzMDEzNyAzLjY4MjE5Mi0yLjk0ODk0MUMzLjY4MjE5Mi0zLjIzNTg2NiAzLjQzNTExOC0zLjUxNDgxOSAyLjk4MDgyMi0zLjUxNDgxOUMyLjQzODg1NC0zLjUxNDgxOSAyLjA3MjIyOS0zLjE1NjE2NCAxLjkwNDg1Ny0yLjk0MDk3MUMxLjc0NTQ1NS0zLjUxNDgxOSAxLjIwMzQ4Ny0zLjUxNDgxOSAxLjEyMzc4Ni0zLjUxNDgxOUMuODM2ODYyLTMuNTE0ODE5IC42Mzc2MDktMy4zMzE1MDcgLjUxMDA4Ny0zLjA4NDQzM0MuMzI2Nzc1LTIuNzI1Nzc4IC4yMzkxMDMtMi4zMTkzMDMgLjIzOTEwMy0yLjI5NTM5MkMuMjM5MTAzLTIuMjIzNjYxIC4yOTQ4OTQtMi4xOTE3ODEgLjM1ODY1NS0yLjE5MTc4MUMuNDYyMjY3LTIuMTkxNzgxIC40NzAyMzctMi4yMjM2NjEgLjUyNjAyNy0yLjQzMDg4NEMuNjIxNjY5LTIuODIxNDIgLjc2NTEzMS0zLjI5MTY1NiAxLjA5OTg3NS0zLjI5MTY1NkMxLjMwNzA5OC0zLjI5MTY1NiAxLjM1NDkxOS0zLjA5MjQwMyAxLjM1NDkxOS0yLjkxNzA2MUMxLjM1NDkxOS0yLjc3MzU5OSAxLjMxNTA2OC0yLjYyMjE2NyAxLjI1MTMwOC0yLjM1OTE1M0MxLjIzNTM2Ny0yLjI5NTM5MiAxLjExNTgxNi0xLjgyNTE1NiAxLjA4MzkzNS0xLjcxMzU3NEwuNzg5MDQxLS41MTgwNTdDLjc1NzE2MS0uMzk4NTA2IC43MDkzNC0uMTk5MjUzIC43MDkzNC0uMTY3MzcyQy43MDkzNCAuMDE1OTQgLjg2MDc3MiAuMDc5NzAxIC45NjQzODQgLjA3OTcwMUMxLjI0MzMzNyAuMDc5NzAxIDEuMjk5MTI4LS4xNDM0NjIgMS4zNjI4ODktLjQxNDQ0NkwxLjUzODIzMi0xLjA5OTg3NVoiIGlkPSJnMC0xMTQiLz4mI3hhOzxwYXRoIGQ9Ik0zLjIxMTk1NS0yLjk5Njc2MkMzLjAyODY0My0yLjk2NDg4MiAyLjg2MTI3LTIuODIxNDIgMi44NjEyNy0yLjYyMjE2N0MyLjg2MTI3LTIuNDc4NzA1IDIuOTU2OTEyLTIuMzc1MDkzIDMuMTMyMjU0LTIuMzc1MDkzQzMuMjUxODA2LTIuMzc1MDkzIDMuNDk4ODc5LTIuNDYyNzY1IDMuNDk4ODc5LTIuODIxNDJDMy40OTg4NzktMy4zMTU1NjcgMi45ODA4MjItMy41MTQ4MTkgMi40ODY2NzUtMy41MTQ4MTlDMS40MTg2OC0zLjUxNDgxOSAxLjA4MzkzNS0yLjc1NzY1OSAxLjA4MzkzNS0yLjM1MTE4M0MxLjA4MzkzNS0yLjI3MTQ4MiAxLjA4MzkzNS0xLjk4NDU1OCAxLjM3ODgyOS0xLjc2MTM5NUMxLjU2MjE0Mi0xLjYxNzkzMyAxLjY5NzYzNC0xLjU5NDAyMiAyLjExMjA4LTEuNTE0MzIxQzIuMzkxMDM0LTEuNDU4NTMxIDIuODQ1MzMtMS4zNzg4MjkgMi44NDUzMy0uOTY0Mzg0QzIuODQ1MzMtLjc1NzE2MSAyLjY5Mzg5OC0uNDk0MTQ3IDIuNDcwNzM1LS4zNDI3MTVDMi4xNzU4NDEtLjE1MTQzMiAxLjc4NTMwNS0uMTQzNDYyIDEuNjU3NzgzLS4xNDM0NjJDMS40NjY1MDEtLjE0MzQ2MiAuOTI0NTMzLS4xNzUzNDIgLjcyNTI4LS40OTQxNDdDMS4xMzE3NTYtLjUxMDA4NyAxLjE4NzU0Ny0uODM2ODYyIDEuMTg3NTQ3LS45MzI1MDNDMS4xODc1NDctMS4xNzE2MDYgLjk3MjM1NC0xLjIyNzM5NyAuODc2NzEyLTEuMjI3Mzk3Qy43NDkxOTEtMS4yMjczOTcgLjQyMjQxNi0xLjEzMTc1NiAuNDIyNDE2LS42OTM0Qy40MjI0MTYtLjIyMzE2MyAuOTE2NTYzIC4wNzk3MDEgMS42NTc3ODMgLjA3OTcwMUMzLjA0NDU4MyAuMDc5NzAxIDMuMzM5NDc3LS45MDA2MjMgMy4zMzk0NzctMS4yMzUzNjdDMy4zMzk0NzctMS45NTI2NzcgMi41NTg0MDYtMi4xMDQxMSAyLjI2MzUxMi0yLjE1OTlDMS44ODA5NDYtMi4yMzE2MzEgMS41NzAxMTItMi4yODc0MjIgMS41NzAxMTItMi42MjIxNjdDMS41NzAxMTItMi43NjU2MjkgMS43MDU2MDQtMy4yOTE2NTYgMi40Nzg3MDUtMy4yOTE2NTZDMi43ODE1NjktMy4yOTE2NTYgMy4wOTI0MDMtMy4yMDM5ODUgMy4yMTE5NTUtMi45OTY3NjJaIiBpZD0iZzAtMTE1Ii8+JiN4YTs8cGF0aCBkPSJNMi45ODg3OTItLjg2ODc0MkMyLjk0ODk0MS0uNzE3MzEgMi41NzQzNDYtLjE0MzQ2MiAyLjA0MDM0OS0uMTQzNDYyQzEuNjQ5ODEzLS4xNDM0NjIgMS41MTQzMjEtLjQzMDM4NiAxLjUxNDMyMS0uNzg5MDQxQzEuNTE0MzIxLTEuMjU5Mjc4IDEuNzkzMjc1LTEuOTc2NTg4IDEuOTY4NjE4LTIuNDIyOTE0QzIuMDQ4MzE5LTIuNjIyMTY3IDIuMDcyMjI5LTIuNjkzODk4IDIuMDcyMjI5LTIuODM3MzZDMi4wNzIyMjktMy4yNzU3MTYgMS43MjE1NDQtMy41MTQ4MTkgMS4zNTQ5MTktMy41MTQ4MTlDLjU2NTg3OC0zLjUxNDgxOSAuMjM5MTAzLTIuMzkxMDM0IC4yMzkxMDMtMi4yOTUzOTJDLjIzOTEwMy0yLjIyMzY2MSAuMjk0ODk0LTIuMTkxNzgxIC4zNTg2NTUtMi4xOTE3ODFDLjQ2MjI2Ny0yLjE5MTc4MSAuNDcwMjM3LTIuMjM5NjAxIC40OTQxNDctMi4zMTkzMDNDLjcwMTM3LTMuMDI4NjQzIDEuMDUyMDU1LTMuMjkxNjU2IDEuMzMxMDA5LTMuMjkxNjU2QzEuNDUwNTYtMy4yOTE2NTYgMS41MjIyOTEtMy4yMTE5NTUgMS41MjIyOTEtMy4wMjg2NDNTMS40NTA1Ni0yLjY2MjAxNyAxLjM0Njk0OS0yLjM4MzA2NEMxLjAxMjIwNC0xLjUzODIzMiAuOTQwNDczLTEuMTk1NTE3IC45NDA0NzMtLjkwODU5M0MuOTQwNDczLS4xMjc1MjIgMS41MzAyNjIgLjA3OTcwMSAyLjAwMDQ5OCAuMDc5NzAxQzIuNTk4MjU3IC4wNzk3MDEgMi45NjQ4ODItLjM5ODUwNiAyLjk5Njc2Mi0uNDM4MzU2QzMuMTI0Mjg0LS4wNjM3NjEgMy40ODI5MzkgLjA3OTcwMSAzLjc2OTg2MyAuMDc5NzAxQzQuMTQ0NDU4IC4wNzk3MDEgNC4zMjc3NzEtLjIzOTEwMyA0LjM4MzU2Mi0uMzU4NjU1QzQuNTQyOTY0LS42NDU1NzkgNC42NTQ1NDUtMS4xMDc4NDYgNC42NTQ1NDUtMS4xMzk3MjZDNC42NTQ1NDUtMS4xODc1NDcgNC42MjI2NjUtMS4yNDMzMzcgNC41MjcwMjQtMS4yNDMzMzdTNC40MTU0NDItMS4yMDM0ODcgNC4zNjc2MjEtLjk5NjI2NEM0LjI2NDAxLS41OTc3NTggNC4xMjA1NDgtLjE0MzQ2MiAzLjc5Mzc3My0uMTQzNDYyQzMuNjEwNDYxLS4xNDM0NjIgMy41Mzg3My0uMjk0ODk0IDMuNTM4NzMtLjUxODA1N0MzLjUzODczLS42NTM1NDkgMy42MTA0NjEtLjkyNDUzMyAzLjY1ODI4MS0xLjEyMzc4NlMzLjgyNTY1NC0xLjgwMTI0NSAzLjg1NzUzNC0xLjk0NDcwN0w0LjAxNjkzNi0yLjU1MDQzNkM0LjA2NDc1Ny0yLjc2NTYyOSA0LjE2MDM5OS0zLjE0MDIyNCA0LjE2MDM5OS0zLjE4ODA0NUM0LjE2MDM5OS0zLjM4NzI5OCA0LjAwMDk5Ni0zLjQzNTExOCAzLjkwNTM1NS0zLjQzNTExOEMzLjc5Mzc3My0zLjQzNTExOCAzLjYxODQzMS0zLjM2MzM4NyAzLjU2MjY0LTMuMTcyMTA1TDIuOTg4NzkyLS44Njg3NDJaIiBpZD0iZzAtMTE3Ii8+JiN4YTs8cGF0aCBkPSJNNS4zMzIwMDUtNC44MDU5NzhDNS41NzExMDgtNC44MDU5NzggNS42NjY3NS00LjgwNTk3OCA1LjY2Njc1LTUuMDMzMTI2QzUuNjY2NzUtNS4xNTI2NzcgNS41NzExMDgtNS4xNTI2NzcgNS4zNTU5MTUtNS4xNTI2NzdINC4zODc1NDdDNC42MTQ2OTUtNi4zODQwNiA0Ljc4MjA2Ny03LjIzMjg3NyA0Ljg3NzcwOS03LjYxNTQ0MkM0Ljk0OTQ0LTcuOTAyMzY2IDUuMjAwNDk4LTguMTc3MzM1IDUuNTExMzMzLTguMTc3MzM1QzUuNzYyMzkxLTguMTc3MzM1IDYuMDEzNDUtOC4wNjk3MzggNi4xMzMwMDEtNy45NjIxNDJDNS42NjY3NS03LjkxNDMyMSA1LjUyMzI4OC03LjU2NzYyMSA1LjUyMzI4OC03LjM2NDM4NEM1LjUyMzI4OC03LjEyNTI4IDUuNzAyNjE1LTYuOTgxODE4IDUuOTI5NzYzLTYuOTgxODE4QzYuMTY4ODY3LTYuOTgxODE4IDYuNTI3NTIyLTcuMTg1MDU2IDYuNTI3NTIyLTcuNjM5MzUyQzYuNTI3NTIyLTguMTQxNDY5IDYuMDI1NDA1LTguNDE2NDM4IDUuNDk5Mzc3LTguNDE2NDM4QzQuOTg1MzA1LTguNDE2NDM4IDQuNDgzMTg4LTguMDMzODczIDQuMjQ0MDg1LTcuNTY3NjIxQzQuMDI4ODkyLTcuMTQ5MTkxIDMuOTA5MzQtNi43MTg4MDQgMy42MzQzNzEtNS4xNTI2NzdIMi44MzMzNzVDMi42MDYyMjctNS4xNTI2NzcgMi40ODY2NzUtNS4xNTI2NzcgMi40ODY2NzUtNC45Mzc0ODRDMi40ODY2NzUtNC44MDU5NzggMi41NTg0MDYtNC44MDU5NzggMi43OTc1MDktNC44MDU5NzhIMy41NjI2NEMzLjM0NzQ0Ny0zLjY5NDE0NyAyLjg1NzI4NS0uOTkyMjc5IDIuNTgyMzE2IC4yODY5MjRDMi4zNzkwNzggMS4zMjcwMjQgMi4xOTk3NTEgMi4xOTk3NTEgMS42MDE5OTMgMi4xOTk3NTFDMS41NjYxMjcgMi4xOTk3NTEgMS4yMTk0MjcgMi4xOTk3NTEgMS4wMDQyMzQgMS45NzI2MDNDMS42MTM5NDggMS45MjQ3ODIgMS42MTM5NDggMS4zOTg3NTUgMS42MTM5NDggMS4zODY4QzEuNjEzOTQ4IDEuMTQ3Njk2IDEuNDM0NjIgMS4wMDQyMzQgMS4yMDc0NzIgMS4wMDQyMzRDLjk2ODM2OSAxLjAwNDIzNCAuNjA5NzE0IDEuMjA3NDcyIC42MDk3MTQgMS42NjE3NjhDLjYwOTcxNCAyLjE3NTg0MSAxLjEzNTc0MSAyLjQzODg1NCAxLjYwMTk5MyAyLjQzODg1NEMyLjgyMTQyIDIuNDM4ODU0IDMuMzIzNTM3IC4yNTEwNTkgMy40NTUwNDQtLjM0NjdDMy42NzAyMzctMS4yNjcyNDggNC4yNTYwNC00LjQ0NzMyMyA0LjMxNTgxNi00LjgwNTk3OEg1LjMzMjAwNVoiIGlkPSJnMS0xMDIiLz4mI3hhOzwvZGVmcz4mI3hhOzxnIHRyYW5zZm9ybT0ibWF0cml4KDEuMTMgMCAwIDEuMTMgLTI0My4wMDAyMjggLTgxLjQxODc2KSIgaWQ9InBhZ2UxIj4mI3hhOzx1c2UgeGxpbms6aHJlZj0iI2cxLTEwMiIgeT0iODAuMTk5MjUzIiB4PSIyMTMuNjMxMzMyIi8+JiN4YTs8dXNlIHhsaW5rOmhyZWY9IiNnMC0xMDkiIHk9IjgxLjk5MjUxNiIgeD0iMjE5LjQwMTMyIi8+JiN4YTs8dXNlIHhsaW5rOmhyZWY9IiNnMC0xMDEiIHk9IjgxLjk5MjUxNiIgeD0iMjI2Ljg5MTg0NyIvPiYjeGE7PHVzZSB4bGluazpocmVmPSIjZzAtOTciIHk9IjgxLjk5MjUxNiIgeD0iMjMwLjgyMDIzIi8+JiN4YTs8dXNlIHhsaW5rOmhyZWY9IiNnMC0xMTUiIHk9IjgxLjk5MjUxNiIgeD0iMjM1LjMxODI0Ii8+JiN4YTs8dXNlIHhsaW5rOmhyZWY9IiNnMC0xMTciIHk9IjgxLjk5MjUxNiIgeD0iMjM5LjIzNDE1OSIvPiYjeGE7PHVzZSB4bGluazpocmVmPSIjZzAtMTE0IiB5PSI4MS45OTI1MTYiIHg9IjI0NC4xMzcxMjkiLz4mI3hhOzx1c2UgeGxpbms6aHJlZj0iI2cwLTEwMSIgeT0iODEuOTkyNTE2IiB4PSIyNDguMTkzNzI0Ii8+JiN4YTs8L2c+JiN4YTs8L3N2Zz4=;movable=1;resizable=1;rotatable=1;deletable=1;editable=1;locked=0;connectable=1;" vertex="1" parent="e-3lXU6PlFcb_SwNqCSh-43">
          <mxGeometry x="59" y="9" width="43" height="12" as="geometry" />
        </mxCell>
        <mxCell id="e-3lXU6PlFcb_SwNqCSh-38" value="Pub rate:&amp;nbsp;" style="text;html=1;align=center;verticalAlign=middle;resizable=1;points=[];autosize=1;strokeColor=none;fillColor=none;fontFamily=Helvetica;fontSize=10;fontColor=default;labelBackgroundColor=none;movable=1;rotatable=1;deletable=1;editable=1;locked=0;connectable=1;" vertex="1" parent="e-3lXU6PlFcb_SwNqCSh-43">
          <mxGeometry width="70" height="30" as="geometry" />
        </mxCell>
        <mxCell id="e-3lXU6PlFcb_SwNqCSh-81" style="edgeStyle=orthogonalEdgeStyle;shape=connector;curved=0;rounded=1;orthogonalLoop=1;jettySize=auto;html=1;exitX=0.5;exitY=1;exitDx=0;exitDy=0;entryX=0.75;entryY=0;entryDx=0;entryDy=0;strokeColor=#000000;strokeWidth=2;align=center;verticalAlign=middle;fontFamily=Helvetica;fontSize=11;fontColor=#333333;labelBackgroundColor=none;resizable=0;endArrow=none;endFill=0;fillColor=#f8cecc;" edge="1" parent="1" source="e-3lXU6PlFcb_SwNqCSh-52" target="e-3lXU6PlFcb_SwNqCSh-4">
          <mxGeometry relative="1" as="geometry" />
        </mxCell>
        <mxCell id="e-3lXU6PlFcb_SwNqCSh-52" value="Carla Autoware&lt;div&gt;Bridge&lt;/div&gt;" style="rounded=1;whiteSpace=wrap;html=1;strokeWidth=2;fillColor=#d5e8d4;strokeColor=#82b366;rotation=-90;fontStyle=1;arcSize=50;" vertex="1" parent="1">
          <mxGeometry x="449.34999999999997" y="313.94" width="100.57" height="32.5" as="geometry" />
        </mxCell>
        <mxCell id="e-3lXU6PlFcb_SwNqCSh-65" value="" style="edgeStyle=orthogonalEdgeStyle;shape=connector;curved=0;rounded=1;orthogonalLoop=1;jettySize=auto;html=1;strokeColor=#b85450;strokeWidth=2;align=center;verticalAlign=middle;fontFamily=Helvetica;fontSize=11;fontColor=#333333;labelBackgroundColor=none;resizable=0;endArrow=none;fillColor=#f8cecc;endFill=0;" edge="1" parent="1" source="e-3lXU6PlFcb_SwNqCSh-56" target="e-3lXU6PlFcb_SwNqCSh-64">
          <mxGeometry relative="1" as="geometry" />
        </mxCell>
        <mxCell id="e-3lXU6PlFcb_SwNqCSh-56" value="&lt;font style=&quot;font-size: 10px;&quot;&gt;Remove timestamp override in Steering callback&lt;/font&gt;" style="shape=note;whiteSpace=wrap;html=1;backgroundOutline=1;darkOpacity=0.05;align=left;verticalAlign=middle;fontFamily=Helvetica;fontSize=11;labelBackgroundColor=none;resizable=0;fillColor=#f8cecc;strokeColor=#b85450;" vertex="1" parent="1">
          <mxGeometry x="542.68" y="110" width="80" height="100" as="geometry" />
        </mxCell>
        <mxCell id="e-3lXU6PlFcb_SwNqCSh-57" style="edgeStyle=orthogonalEdgeStyle;rounded=1;orthogonalLoop=1;jettySize=auto;html=1;entryX=0;entryY=0.5;entryDx=0;entryDy=0;entryPerimeter=0;fontFamily=Helvetica;fontSize=11;fontColor=#333333;labelBackgroundColor=none;resizable=0;curved=0;exitX=1;exitY=0.5;exitDx=0;exitDy=0;fillColor=#f8cecc;strokeColor=#b85450;strokeWidth=2;" edge="1" parent="1" source="e-3lXU6PlFcb_SwNqCSh-52" target="e-3lXU6PlFcb_SwNqCSh-56">
          <mxGeometry relative="1" as="geometry" />
        </mxCell>
        <mxCell id="e-3lXU6PlFcb_SwNqCSh-64" value="&lt;font style=&quot;font-size: 10px;&quot;&gt;If CARLA&amp;nbsp;&lt;/font&gt;&lt;div&gt;&lt;font style=&quot;font-size: 10px;&quot;&gt;stamp wasn&#39;t good, keeps Autoware-Bridge stamp&lt;/font&gt;&lt;/div&gt;" style="shape=note;whiteSpace=wrap;html=1;backgroundOutline=1;darkOpacity=0.05;align=left;verticalAlign=middle;fontFamily=Helvetica;fontSize=11;labelBackgroundColor=none;resizable=0;fillColor=#f8cecc;strokeColor=#b85450;" vertex="1" parent="1">
          <mxGeometry x="635" y="110" width="80" height="100" as="geometry" />
        </mxCell>
        <mxCell id="e-3lXU6PlFcb_SwNqCSh-44" value="" style="rounded=1;whiteSpace=wrap;html=1;strokeWidth=2;fillColor=#f5f5f5;strokeColor=#666666;fontStyle=1;fontColor=#333333;" vertex="1" parent="1">
          <mxGeometry x="440" y="560" width="289.82" height="150" as="geometry" />
        </mxCell>
        <mxCell id="e-3lXU6PlFcb_SwNqCSh-45" value="&lt;div&gt;Subscribe to:&lt;/div&gt;&lt;i&gt;&lt;ul&gt;&lt;li&gt;&lt;i&gt;/vehicle/status/velocity_status&lt;/i&gt;&lt;/li&gt;&lt;li&gt;&lt;i&gt;/vehicle/status/steering_status&lt;/i&gt;&lt;/li&gt;&lt;li&gt;&lt;i&gt;/carla/ego_vehicle/ackermann_cmd&lt;/i&gt;&lt;/li&gt;&lt;/ul&gt;&lt;/i&gt;" style="text;html=1;align=left;verticalAlign=middle;whiteSpace=wrap;rounded=0;fontSize=10;strokeColor=none;fillColor=none;fontColor=#333333;labelBackgroundColor=none;" vertex="1" parent="1">
          <mxGeometry x="455" y="584" width="175" height="65" as="geometry" />
        </mxCell>
        <mxCell id="e-3lXU6PlFcb_SwNqCSh-67" value="&lt;span style=&quot;color: rgb(51, 51, 51); font-family: Helvetica; font-size: 12px; font-style: normal; font-variant-ligatures: normal; font-variant-caps: normal; font-weight: 700; letter-spacing: normal; orphans: 2; text-indent: 0px; text-transform: none; widows: 2; word-spacing: 0px; -webkit-text-stroke-width: 0px; white-space: normal; background-color: rgb(251, 251, 251); text-decoration-thickness: initial; text-decoration-style: initial; text-decoration-color: initial; float: none; display: inline !important;&quot;&gt;latencyEvaluator&lt;/span&gt;" style="text;whiteSpace=wrap;html=1;fontFamily=Helvetica;fontSize=11;fontColor=#333333;labelBackgroundColor=none;resizable=0;align=center;" vertex="1" parent="1">
          <mxGeometry x="519.9100000000001" y="559" width="130" height="40" as="geometry" />
        </mxCell>
        <mxCell id="e-3lXU6PlFcb_SwNqCSh-68" value="&lt;div&gt;Latency:&lt;/div&gt;&lt;div&gt;&lt;ul&gt;&lt;li&gt;Control signal latency&lt;/li&gt;&lt;li&gt;Sensor reading latency&lt;/li&gt;&lt;/ul&gt;&lt;/div&gt;" style="text;html=1;align=left;verticalAlign=middle;whiteSpace=wrap;rounded=0;fontSize=10;strokeColor=none;fillColor=none;fontColor=#333333;labelBackgroundColor=none;" vertex="1" parent="1">
          <mxGeometry x="455" y="654" width="175" height="55" as="geometry" />
        </mxCell>
      </root>
    </mxGraphModel>
  </diagram>
</mxfile>
